HIERARCHY
ROOT hip
{
  OFFSET 0 0 0
  CHANNELS 6 Xposition Yposition Zposition Zrotation Yrotation Xrotation
  JOINT abdomen
  {
    OFFSET 0 20.6881 -0.73152
    CHANNELS 3 Zrotation Xrotation Yrotation
    JOINT chest
    {
      OFFSET 0 11.7043 -0.48768
      CHANNELS 3 Zrotation Xrotation Yrotation
      JOINT neck
      {
        OFFSET 0 22.1894 -2.19456
        CHANNELS 3 Zrotation Xrotation Yrotation
        JOINT head
        {
          OFFSET -0.24384 7.07133 1.2192
          CHANNELS 3 Zrotation Xrotation Yrotation
          JOINT leftEye
          {
            OFFSET 4.14528 8.04674 8.04672
            CHANNELS 3 Zrotation Xrotation Yrotation
            End Site
            {
              OFFSET 1 0 0
            }
          }
          JOINT rightEye
          {
            OFFSET -3.6576 8.04674 8.04672
            CHANNELS 3 Zrotation Xrotation Yrotation
            End Site
            {
              OFFSET 1 0 0
            }
          }
        }
      }
      JOINT rCollar
      {
        OFFSET -2.68224 19.2634 -4.8768
        CHANNELS 3 Zrotation Xrotation Yrotation
        JOINT rShldr
        {
          OFFSET -8.77824 -1.95073 1.46304
          CHANNELS 3 Zrotation Xrotation Yrotation
          JOINT rForeArm
          {
            OFFSET -28.1742 -1.7115 0.48768
            CHANNELS 3 Zrotation Xrotation Yrotation
            JOINT rHand
            {
              OFFSET -22.5879 0.773209 7.07136
              CHANNELS 3 Zrotation Xrotation Yrotation
              JOINT rThumb1
              {
                OFFSET -1.2192 -0.487915 3.41376
                CHANNELS 3 Zrotation Xrotation Yrotation
                JOINT rThumb2
                {
                  OFFSET -3.37035 -0.52449 3.41376
                  CHANNELS 3 Zrotation Xrotation Yrotation
                  End Site
                  {
                    OFFSET -1.78271 -1.18214 1.43049
                  }
                }
              }
              JOINT rIndex1
              {
                OFFSET -7.75947 0.938293 5.60832
                CHANNELS 3 Zrotation Xrotation Yrotation
                JOINT rIndex2
                {
                  OFFSET -2.54057 -0.884171 1.56538
                  CHANNELS 3 Zrotation Xrotation Yrotation
                  End Site
                  {
                    OFFSET -1.62519 -0.234802 1.16502
                  }
                }
              }
              JOINT rMid1
              {
                OFFSET -8.24714 1.18213 3.41376
                CHANNELS 3 Zrotation Xrotation Yrotation
                JOINT rMid2
                {
                  OFFSET -3.10165 -0.590103 1.0647
                  CHANNELS 3 Zrotation Xrotation Yrotation
                  End Site
                  {
                    OFFSET -2.48547 -0.328903 0.83742
                  }
                }
              }
              JOINT rRing1
              {
                OFFSET -8.82822 0.546677 1.51678
                CHANNELS 3 Zrotation Xrotation Yrotation
                JOINT rRing2
                {
                  OFFSET -2.60934 -0.819778 -0.0198488
                  CHANNELS 3 Zrotation Xrotation Yrotation
                  End Site
                  {
                    OFFSET -2.33842 -0.294052 0.168128
                  }
                }
              }
              JOINT rPinky1
              {
                OFFSET -8.27202 -0.0477905 -0.4584
                CHANNELS 3 Zrotation Xrotation Yrotation
                JOINT rPinky2
                {
                  OFFSET -1.82734 -0.647385 -0.700984
                  CHANNELS 3 Zrotation Xrotation Yrotation
                  End Site
                  {
                    OFFSET -1.69225 -0.51767 -0.607171
                  }
                }
              }
            }
          }
        }
      }
      JOINT lCollar
      {
        OFFSET 2.68224 19.2634 -4.8768
        CHANNELS 3 Zrotation Xrotation Yrotation
        JOINT lShldr
        {
          OFFSET 8.77824 -1.95073 1.46304
          CHANNELS 3 Zrotation Xrotation Yrotation
          JOINT lForeArm
          {
            OFFSET 28.1742 -1.7115 0.48768
            CHANNELS 3 Zrotation Xrotation Yrotation
            JOINT lHand
            {
              OFFSET 22.5879 0.773209 7.07136
              CHANNELS 3 Zrotation Xrotation Yrotation
              JOINT lThumb1
              {
                OFFSET 1.2192 -0.487915 3.41376
                CHANNELS 3 Zrotation Xrotation Yrotation
                JOINT lThumb2
                {
                  OFFSET 3.37035 -0.52449 3.41376
                  CHANNELS 3 Zrotation Xrotation Yrotation
                  End Site
                  {
                    OFFSET 1.78271 -1.18214 1.43049
                  }
                }
              }
              JOINT lIndex1
              {
                OFFSET 7.75947 0.938293 5.60832
                CHANNELS 3 Zrotation Xrotation Yrotation
                JOINT lIndex2
                {
                  OFFSET 2.54057 -0.884171 1.56538
                  CHANNELS 3 Zrotation Xrotation Yrotation
                  End Site
                  {
                    OFFSET 1.62519 -0.234802 1.16502
                  }
                }
              }
              JOINT lMid1
              {
                OFFSET 8.24714 1.18213 3.41376
                CHANNELS 3 Zrotation Xrotation Yrotation
                JOINT lMid2
                {
                  OFFSET 3.10165 -0.590103 1.0647
                  CHANNELS 3 Zrotation Xrotation Yrotation
                  End Site
                  {
                    OFFSET 2.48547 -0.328903 0.83742
                  }
                }
              }
              JOINT lRing1
              {
                OFFSET 8.82822 0.546677 1.51678
                CHANNELS 3 Zrotation Xrotation Yrotation
                JOINT lRing2
                {
                  OFFSET 2.60934 -0.819778 -0.0198488
                  CHANNELS 3 Zrotation Xrotation Yrotation
                  End Site
                  {
                    OFFSET 2.33842 -0.294052 0.168128
                  }
                }
              }
              JOINT lPinky1
              {
                OFFSET 8.27202 -0.0477905 -0.4584
                CHANNELS 3 Zrotation Xrotation Yrotation
                JOINT lPinky2
                {
                  OFFSET 1.82734 -0.647385 -0.700984
                  CHANNELS 3 Zrotation Xrotation Yrotation
                  End Site
                  {
                    OFFSET 1.69225 -0.51767 -0.607171
                  }
                }
              }
            }
          }
        }
      }
    }
  }
  JOINT rButtock
  {
    OFFSET -8.77824 4.35084 1.2192
    CHANNELS 3 Zrotation Xrotation Yrotation
    JOINT rThigh
    {
      OFFSET 0 -1.70687 -2.19456
      CHANNELS 3 Zrotation Xrotation Yrotation
      JOINT rShin
      {
        OFFSET 0 -36.8199 0.73152
        CHANNELS 3 Zrotation Xrotation Yrotation
        JOINT rFoot
        {
          OFFSET 0.73152 -45.1104 -5.12064
          CHANNELS 3 Zrotation Xrotation Yrotation
          End Site
          {
            OFFSET -1.1221 -3.69964 12.103
          }
        }
      }
    }
  }
  JOINT lButtock
  {
    OFFSET 8.77824 4.35084 1.2192
    CHANNELS 3 Zrotation Xrotation Yrotation
    JOINT lThigh
    {
      OFFSET 0 -1.70687 -2.19456
      CHANNELS 3 Zrotation Xrotation Yrotation
      JOINT lShin
      {
        OFFSET 0 -36.8199 0.73152
        CHANNELS 3 Zrotation Xrotation Yrotation
        JOINT lFoot
        {
          OFFSET -0.73152 -45.1104 -5.12064
          CHANNELS 3 Zrotation Xrotation Yrotation
          End Site
          {
            OFFSET 1.1221 -3.69964 12.103
          }
        }
      }
    }
  }
}
MOTION
Frames:	5
Frame Time:	0.03333
63.5598 60.0695 21.625 -8.506358 43.182585 -4.100199 -1.612555 11.201328 -0.0 3.4406 -11.068396 14.76311 1.370835 12.815742 36.223547 -7.524869 -18.673506 -10.723314 11.8509 -1.01785 -9.783341 2.199881 0.025756 1.341398 -153.613192 -3.371281 160.970711 -47.078126 12.524605 7.349598 -167.014868 -18.569706 -71.920573 -11.337528 -68.668909 -13.433825 -6.567327 -5.780061 3.072346 -94.992398 12.763591 100.45977 -2.105687 10.410232 10.2194 168.653981 -72.325796 120.70689 153.670159 -62.585626 119.454505 -156.282759 15.570522 131.414164 -141.013803 -37.886727 -154.380498 -120.776293 -53.422946 -147.098222 -136.490716 16.097969 -144.745533 -131.414768 28.740972 -151.364679 124.894781 63.44158 -129.439578 55.277023 -2.962874 -26.682097 -6.429329 -9.049352 127.384485 -164.396863 -27.807751 -141.980737 -4.188055 9.365614 3.425166 25.353483 -3.247712 -5.737002 -59.263644 -74.71831 3.597629 143.597792 -18.685713 -99.130921 2.434869 0.635217 -6.441399 2.602694 27.10965 1.979596 2.695774 42.943959 -3.144167 -31.06683 -51.534223 -24.233267 -7.499203 28.877986 -10.63264 -18.83105 41.227779 0.027321 141.845258 70.757376 29.955011 -179.873473 26.319131 179.423021 -123.935572 -76.331124 -16.885378 -122.767858 -47.341472 -28.310929 0.798606 -1.921698 -0.999547 73.307733 -46.28297 159.462321 82.359325 2.399185 144.549157 -71.678566 66.412647 146.442603
64.0278 60.016400000000004 21.512500000000003 -8.275507 43.102039 -3.844292 -2.064484 11.533235 0.328619 3.830575 -11.455196 14.191704 6.142223 26.863631 128.947368 -27.131584 19.914924 -96.678814 10.806485 -1.144612 -12.057135 2.498799 0.039931 1.830726 -8.811565 34.709403 12.303354 -117.750406 -10.027434 145.598134 -168.281241 -14.286565 -73.084093 -11.444325 -67.166278 -12.960888 -1.541736 -9.672791 2.287812 -28.349787 32.639745 31.592412 7.89654 -2.802076 4.367385 -169.758237 -7.813961 130.263991 -91.41052 52.315951 78.554014 13.190118 -11.509405 -4.524996 -7.740166 44.229848 6.059435 25.289141 -61.017201 13.970481 -139.523103 42.374902 -151.692646 -30.037395 -48.993254 -53.837543 61.431025 -82.712896 83.707453 106.678521 -9.161672 146.986869 177.387469 -10.40723 87.623244 10.615285 34.967872 -2.779445 160.13333 -9.302602 -95.959204 156.216124 -22.284272 -96.500699 14.572814 43.307283 -22.002155 74.553357 54.090723 -31.120306 89.580339 54.912739 -80.09445 7.507465 40.550243 -10.620398 152.541844 46.956707 -176.519525 12.818572 1.508197 10.522009 75.469734 -54.161432 73.902888 161.72631 54.670741 152.174093 -4.783657 1.768471 -4.920001 -9.307206 -46.651368 -6.92338 130.276843 71.197285 91.693205 160.670444 84.920889 -45.724712 0.82479 -2.462754 -1.02416 72.207779 -44.449413 66.434538 -18.042505 74.666129 -54.107221 151.978303 -46.117823 -90.55049
64.4434 60.017900000000004 21.4032 -8.555485 44.350191 -3.871388 -4.2198 7.116202 149.421412 -8.577025 3.344044 -134.438604 -11.332348 28.616222 -117.495952 24.076509 31.935501 141.413427 10.043285 -1.178625 -13.353088 2.058901 0.035605 1.981271 -156.541165 -25.078743 165.731073 -74.634108 -67.625199 -39.738706 -22.767759 -85.35472 80.637625 -11.6393 -61.522511 -10.8806 -9.798439 -1.636975 1.802979 20.955854 -12.319047 -7.09188 13.142515 -14.560387 0.153996 -4.797679 13.084404 -15.37655 14.787709 -39.802632 7.880276 -7.966463 23.928737 -0.411932 -8.187736 44.469405 5.033137 -127.891485 52.602435 135.530131 -134.11589 20.446232 -149.637226 -124.933495 52.843455 -164.948108 -0.377327 1.347943 2.855392 71.844619 23.960709 -124.631819 -177.67781 -19.440692 89.236806 13.518489 38.249276 -4.270324 -10.86166 1.627583 6.586492 150.751231 -23.311082 -104.336667 -28.664974 -18.279096 16.079991 -178.110615 -14.126303 -86.673814 160.04002 -9.578458 -139.008535 -161.711906 -63.91073 -120.872049 137.210697 -36.769376 151.779977 -97.997394 71.702359 81.112348 0.755779 -3.365744 -0.249783 -6.391393 19.058332 -1.933472 175.876633 75.019788 3.622275 167.378658 27.426004 -91.486216 -103.552343 13.334603 -107.504234 -134.970244 12.272827 -147.033802 -19.693964 0.884246 -18.880998 96.153871 -29.036746 -174.55976 79.596701 -32.899212 -2.19793 -147.574541 -10.585839 90.554875
64.7784 59.965999999999994 21.2619 -8.933599 44.985369 -3.899818 -1.474669 7.962551 -119.710279 5.905459 6.436556 134.212781 -8.275564 13.746068 -19.664627 21.876533 -13.391551 50.53508 9.557375 -1.09106 -12.9957 1.133294 0.021861 2.210055 -55.470698 -86.72284 -78.951807 132.764483 45.707095 -113.197702 -179.200851 -18.369185 35.921059 -129.2344 43.61476 117.459103 -1.133449 -8.756978 0.777141 -4.577142 15.800554 8.02334 -18.385384 23.241858 16.511899 -35.490621 62.350641 23.851437 6.521349 -25.423197 6.949617 -116.327575 68.333545 104.970316 -11.281359 61.80652 11.552912 179.393361 -46.443523 157.965499 2.882381 -26.826047 -3.990947 -103.258983 -49.223623 -75.975888 6.685733 32.79065 -6.978968 -99.415816 -20.20387 -78.740563 -2.186407 -6.847834 -93.990771 11.32556 31.357735 -3.394576 -5.415716 8.55601 4.981117 74.427326 20.056423 -51.485315 116.773701 12.778816 -124.92674 102.828192 80.96094 -87.891981 -17.341222 -36.26654 -1.151911 -1.112166 -12.712095 -0.969501 139.010296 -33.578155 154.079002 77.922932 -58.569575 101.162965 144.128723 11.780037 142.780634 6.045314 -25.253483 10.251391 173.625958 75.543959 4.343591 167.9304 27.339472 -155.033896 -102.873829 -44.598165 -176.726138 48.276001 63.269592 -163.883447 -23.910216 2.814975 -23.020318 102.263756 -23.232164 -63.465427 -85.967574 -43.598724 -90.960472 69.943066 17.32055 -175.048698
65.0433 59.8564 21.057000000000002 -9.14883 45.091992 -3.819476 -4.562965 11.51979 13.896255 2.644183 -12.958637 1.565255 -7.808069 31.142608 -140.695203 13.162061 38.755602 167.064898 10.184472 -1.07989 -12.073951 -0.018525 -0.000603 3.731455 5.014687 -26.623625 -5.099235 61.684391 21.461677 -15.54371 82.404626 53.113938 45.066664 -19.352958 -14.100256 3.353264 -172.724173 -1.465416 88.644376 -78.091906 2.454442 18.480696 -27.250324 29.810657 22.578669 145.353165 -74.233226 82.031731 -141.289139 30.388494 119.050711 -179.051063 -47.139711 131.337649 -159.601438 29.287344 -176.018884 170.803914 61.488627 -172.237993 -14.245529 78.793598 63.592806 -133.46518 25.701689 -128.459411 8.050116 35.474676 -8.267118 21.901989 11.923458 -78.806709 125.380859 -16.785879 59.523041 -4.806039 -17.371794 -2.620328 -58.384712 -45.434211 -6.439164 12.788351 -17.366582 5.060887 -35.737291 -55.373849 25.979363 -54.738886 -13.492351 -16.546579 158.206793 -7.806491 -140.799844 157.397247 -7.111965 -143.961507 137.410685 -35.90072 152.291515 154.373562 6.702079 161.591107 144.865758 15.028014 144.008061 17.510933 -39.957318 21.557117 9.138223 0.828007 9.153536 -35.351744 -39.930709 -25.04493 90.554368 73.063781 -85.633669 141.379234 -38.680962 42.464852 1.899088 -2.986606 -2.341026 73.170049 -43.276733 67.296557 30.463688 78.777907 62.891403 -80.201935 76.867383 -0.614152
